name ./resultDataOpenSim/trcMotMarkerGrf/sub09/grf-02-08.mot
datacolumns 19
datarows 12
range 1.46400000 1.50800000
endheader

                time	     ground_force_vx	     ground_force_vy	     ground_force_vz	     ground_force_px	     ground_force_py	     ground_force_pz	   l_ground_force_vx	   l_ground_force_vy	   l_ground_force_vz	   l_ground_force_px	   l_ground_force_py	   l_ground_force_pz	     ground_torque_x	     ground_torque_y	     ground_torque_z	   l_ground_torque_x	   l_ground_torque_y	   l_ground_torque_z	
          1.46400000	        -30.04770634	        449.46718400	         -7.64129297	          1.04298330	          0.00000000	          0.07123891	          0.00000000	          0.00000000	          0.00000000	          0.00000000	          0.00000000	          0.00000000	          0.00000000	          0.66722030	          0.00000000	          0.00000000	          0.00000000	          0.00000000	
          1.46800000	        -28.21353464	        449.60260326	         -6.80109332	          1.04389751	          0.00000000	          0.07127256	          0.00000000	          0.00000000	          0.00000000	          0.00000000	          0.00000000	          0.00000000	          0.00000000	          0.74427394	          0.00000000	          0.00000000	          0.00000000	          0.00000000	
          1.47200000	        -28.47531629	        450.20194135	         -5.27536891	          1.04493103	          0.00000000	          0.07125181	          0.00000000	          0.00000000	          0.00000000	          0.00000000	          0.00000000	          0.00000000	          0.00000000	          0.94090139	          0.00000000	          0.00000000	          0.00000000	          0.00000000	
          1.47600000	        -30.40317824	        451.23420614	         -3.39458266	          1.04603698	          0.00000000	          0.07119404	          0.00000000	          0.00000000	          0.00000000	          0.00000000	          0.00000000	          0.00000000	          0.00000000	          1.22427724	          0.00000000	          0.00000000	          0.00000000	          0.00000000	
          1.48000000	        -33.12536669	        452.61083912	         -1.54122924	          1.04711072	          0.00000000	          0.07113666	          0.00000000	          0.00000000	          0.00000000	          0.00000000	          0.00000000	          0.00000000	          0.00000000	          1.54334088	          0.00000000	          0.00000000	          0.00000000	          0.00000000	
          1.48400000	        -35.54962940	        454.22058738	         -0.08789260	          1.04800404	          0.00000000	          0.07112144	          0.00000000	          0.00000000	          0.00000000	          0.00000000	          0.00000000	          0.00000000	          0.00000000	          1.84026100	          0.00000000	          0.00000000	          0.00000000	          0.00000000	
          1.48800000	        -36.64454968	        455.96958417	          0.66857720	          1.04858305	          0.00000000	          0.07117743	          0.00000000	          0.00000000	          0.00000000	          0.00000000	          0.00000000	          0.00000000	          0.00000000	          2.06413170	          0.00000000	          0.00000000	          0.00000000	          0.00000000	
          1.49200000	        -35.71426515	        457.79720057	          0.55690109	          1.04877056	          0.00000000	          0.07131703	          0.00000000	          0.00000000	          0.00000000	          0.00000000	          0.00000000	          0.00000000	          0.00000000	          2.18330231	          0.00000000	          0.00000000	          0.00000000	          0.00000000	
          1.49600000	        -32.58200794	        459.67071114	         -0.43983960	          1.04858047	          0.00000000	          0.07154902	          0.00000000	          0.00000000	          0.00000000	          0.00000000	          0.00000000	          0.00000000	          0.00000000	          2.19257946	          0.00000000	          0.00000000	          0.00000000	          0.00000000	
          1.50000000	        -27.62058327	        461.59087610	         -2.17878845	          1.04811366	          0.00000000	          0.07186937	          0.00000000	          0.00000000	          0.00000000	          0.00000000	          0.00000000	          0.00000000	          0.00000000	          2.11310446	          0.00000000	          0.00000000	          0.00000000	          0.00000000	
          1.50400000	        -21.62884552	        463.61544111	         -4.39243721	          1.04750946	          0.00000000	          0.07225225	          0.00000000	          0.00000000	          0.00000000	          0.00000000	          0.00000000	          0.00000000	          0.00000000	          1.98540323	          0.00000000	          0.00000000	          0.00000000	          0.00000000	
          1.50800000	        -15.59925001	        465.86588075	         -6.75006231	          1.04693931	          0.00000000	          0.07265898	          0.00000000	          0.00000000	          0.00000000	          0.00000000	          0.00000000	          0.00000000	          0.00000000	          1.85851177	          0.00000000	          0.00000000	          0.00000000	          0.00000000	
